# xmcd
#
# Track frame offsets: 
#        150
#        17843
#        34101
#        48859
#        62621
#        78673
#        92833
#        110902
#        126088
#        143380
#
# Disc length: 2084 seconds
#
# Revision: 0
# Processed by: cddbd v1.5.2PL0 Copyright (c) Steve Scherf et al.
# Submitted via: ExactAudioCopy v0.99pb4
#
DISCID=8008220a
DTITLE=Margie Joseph - Sweet Surrender
DYEAR=1974
DGENRE=Soul
TTITLE0=Come Lay Some Lovin' On Me
TTITLE1=[Strange] I Still Love You
TTITLE2=Come With Me
TTITLE3=Baby I'm-A Want You
TTITLE4=To Know You Is To Love You
TTITLE5=If I'm Still Around Tommorrow
TTITLE6=My Love
TTITLE7=Ridin' High
TTITLE8=He's Got A Way
TTITLE9=Sweet Surrender
EXTD=
EXTT0=
EXTT1=
EXTT2=
EXTT3=
EXTT4=
EXTT5=
EXTT6=
EXTT7=
EXTT8=
EXTT9=
PLAYORDER=
